<svg width="959" height="959" viewBox="0 0 959 959" fill="none" xmlns="http://www.w3.org/2000/svg">
<circle cx="479.5" cy="479.5" r="479.5" fill="#CFC6C2"/>
<path d="M480 339.5H419.5C415.539 338.953 411.851 337.17 408.963 334.405C406.074 331.64 404.131 328.034 403.411 324.101C402.691 320.167 403.23 316.107 404.952 312.498C406.673 308.889 409.49 305.915 413 304L417 302.5C419.15 302.122 421.35 302.122 423.5 302.5H480C484.973 302.5 489.742 304.475 493.258 307.992C496.774 311.508 498.75 316.277 498.75 321.25V323C498.146 327.552 495.914 331.73 492.467 334.764C489.02 337.797 484.591 339.479 480 339.5Z" fill="#55723C"/>
<path d="M480 674.75H326.75C323.194 674.728 319.716 673.709 316.711 671.809C313.706 669.909 311.294 667.203 309.75 664L269.75 580.25C268.283 577.477 267.517 574.387 267.517 571.25C267.517 568.113 268.283 565.023 269.75 562.25C271.6 559.493 274.148 557.276 277.135 555.827C280.122 554.377 283.44 553.747 286.75 554H480C484.973 554 489.742 555.975 493.258 559.492C496.775 563.008 498.75 567.777 498.75 572.75V656.5C498.558 661.365 496.506 665.971 493.017 669.367C489.528 672.763 484.869 674.69 480 674.75ZM338.5 637.25H461.25V591H316.5L338.5 637.25Z" fill="#55723C"/>
<path d="M673.25 591H286.75C283.194 590.978 279.716 589.959 276.711 588.059C273.706 586.159 271.294 583.453 269.75 580.25L186.5 405.25C185.447 402.846 184.903 400.25 184.903 397.625C184.903 395 185.447 392.404 186.5 390C187.383 387.495 188.803 385.212 190.66 383.312C192.516 381.412 194.766 379.941 197.25 379L413.25 304C416.289 303.258 419.461 303.258 422.5 304H538C540.87 303.259 543.88 303.259 546.75 304L762.75 379C765.231 379.856 767.497 381.238 769.396 383.05C771.294 384.862 772.779 387.062 773.75 389.5C774.803 391.904 775.347 394.5 775.347 397.125C775.347 399.75 774.803 402.346 773.75 404.75L690.5 579.75C689.01 583.085 686.591 585.92 683.531 587.915C680.472 589.91 676.902 590.981 673.25 591ZM298.5 554H661.5L730 407.75L537.25 339.5H422L230 407.75L298.5 554Z" fill="#55723C"/>
<path d="M540.5 339.5H480C475.047 339.435 470.316 337.439 466.813 333.937C463.311 330.434 461.315 325.703 461.25 320.75C461.172 315.586 463.07 310.588 466.555 306.778C470.04 302.967 474.85 300.632 480 300.25H536.5C538.65 299.872 540.85 299.872 543 300.25L547 301.75C550.62 303.088 553.74 305.511 555.932 308.687C558.125 311.864 559.283 315.64 559.25 319.5C559.385 322.057 559.001 324.615 558.123 327.02C557.244 329.425 555.889 331.628 554.137 333.496C552.386 335.364 550.275 336.859 547.932 337.891C545.588 338.923 543.06 339.47 540.5 339.5Z" fill="#55723C"/>
<path d="M713.25 804H246.75C243.497 803.98 240.304 803.126 237.476 801.518C234.648 799.911 232.28 797.604 230.599 794.819C228.918 792.034 227.98 788.864 227.875 785.613C227.77 782.361 228.502 779.137 230 776.25L310 646C311.702 643.3 314.065 641.08 316.865 639.549C319.664 638.018 322.809 637.226 326 637.25H633.25C636.441 637.226 639.586 638.018 642.385 639.549C645.185 641.08 647.548 643.3 649.25 646L730 776.25C731.498 779.137 732.23 782.361 732.125 785.613C732.02 788.864 731.082 792.034 729.401 794.819C727.72 797.604 725.352 799.911 722.524 801.518C719.696 803.126 716.503 803.98 713.25 804ZM280 767.5H680L623 674.75H337.25L280 767.5Z" fill="#55723C"/>
<path d="M633.25 674.75H480C475.047 674.685 470.316 672.689 466.813 669.187C463.311 665.684 461.315 660.953 461.25 656V572.25C461.38 567.364 463.413 562.723 466.915 559.314C470.418 555.905 475.113 553.998 480 554H673.25C676.441 553.976 679.586 554.768 682.385 556.299C685.185 557.83 687.548 560.05 689.25 562.75C690.717 565.523 691.483 568.613 691.483 571.75C691.483 574.887 690.717 577.977 689.25 580.75L649.25 664.5C647.717 667.463 645.432 669.97 642.623 671.769C639.815 673.568 636.582 674.596 633.25 674.75ZM498.75 637.25H621.5L643.5 591H498.75V637.25Z" fill="#55723C"/>
<path d="M540.5 339.5H419.5C414.547 339.435 409.816 337.439 406.313 333.937C402.811 330.434 400.815 325.703 400.75 320.75V275.5C400.75 270.527 402.725 265.758 406.242 262.242C409.758 258.725 414.527 256.75 419.5 256.75H540.5C545.473 256.75 550.242 258.725 553.758 262.242C557.275 265.758 559.25 270.527 559.25 275.5V320.75C559.185 325.703 557.189 330.434 553.687 333.937C550.184 337.439 545.453 339.435 540.5 339.5ZM438.25 302H521.75V294.25H438.25V302Z" fill="#55723C"/>
<path d="M480 294.25C475.047 294.185 470.316 292.189 466.813 288.687C463.311 285.184 461.315 280.453 461.25 275.5C460.484 261.384 457.003 247.548 451 234.75C444.696 224.752 441.54 213.092 441.941 201.279C442.343 189.467 446.282 178.047 453.25 168.5C457.216 164.041 462.062 160.45 467.483 157.955C472.904 155.459 478.783 154.113 484.75 154C503.868 156.093 521.605 164.961 534.75 179C537.164 182.719 538.182 187.173 537.623 191.571C537.064 195.969 534.965 200.027 531.698 203.025C528.431 206.022 524.208 207.765 519.778 207.943C515.348 208.122 510.998 206.725 507.5 204C501.677 197.684 494.105 193.246 485.75 191.25C485.75 191.25 483.75 191.25 481.75 193.75C479.75 196.25 478.5 202.75 486 221.75C493.701 238.932 498.03 257.434 498.75 276.25C498.496 281.071 496.417 285.614 492.934 288.958C489.452 292.301 484.827 294.193 480 294.25Z" fill="#55723C"/>
<path d="M712.25 509.25C709.031 509.272 705.861 508.453 703.055 506.875C700.249 505.296 697.903 503.013 696.25 500.25L610.25 360.75C607.96 356.56 607.331 351.661 608.489 347.029C609.647 342.396 612.507 338.369 616.5 335.75C620.647 333.376 625.544 332.675 630.19 333.79C634.837 334.906 638.882 337.753 641.5 341.75L727.25 481.25C729.686 485.382 730.422 490.298 729.303 494.963C728.183 499.627 725.296 503.674 721.25 506.25C718.578 508.048 715.467 509.085 712.25 509.25Z" fill="#55723C"/>
<path d="M246.75 509.25C243.276 509.226 239.886 508.183 237 506.25C232.912 503.714 229.973 499.684 228.806 495.017C227.64 490.35 228.337 485.412 230.75 481.25L316.5 341.75C319.118 337.753 323.163 334.906 327.81 333.79C332.456 332.675 337.353 333.376 341.5 335.75C345.588 338.287 348.527 342.316 349.694 346.983C350.86 351.65 350.163 356.588 347.75 360.75L262.75 500.25C261.078 502.996 258.729 505.266 255.927 506.842C253.125 508.418 249.965 509.247 246.75 509.25Z" fill="#55723C"/>
</svg>
